<svg xmlns="http://www.w3.org/2000/svg" viewBox="0 0 1857.67 989.96"><defs><style>.cls-1,.cls-2,.cls-6{fill:#ed0e13;}.cls-2,.cls-6{stroke:#ed0e13;}.cls-2,.cls-3,.cls-5,.cls-6,.cls-7{stroke-miterlimit:10;}.cls-2,.cls-3{stroke-width:3px;}.cls-3,.cls-7{fill:none;stroke:#000;}.cls-4{fill:#f40e1d;}.cls-5{fill:#fff;stroke:#f4070e;stroke-width:2px;}.cls-6{stroke-width:3.05px;}.cls-7{stroke-width:2.99px;}</style></defs><g id="Capa_2" data-name="Capa 2"><path class="cls-1" d="M132.74,363.65A52.77,52.77,0,0,0,127,347.74a41.91,41.91,0,0,0-22.53-19,42.93,42.93,0,0,0-14.59-2.49q-13.91,0-23.9,5.56a48,48,0,0,0-16.35,14.74,64.82,64.82,0,0,0-9.41,20.81,93.77,93.77,0,0,0,0,47.29,64.87,64.87,0,0,0,9.41,20.71,48.1,48.1,0,0,0,16.35,14.74q10,5.56,23.9,5.56a39.19,39.19,0,0,0,17.53-3.9A41.7,41.7,0,0,0,121,441.12a55.2,55.2,0,0,0,9.21-15.69,70.78,70.78,0,0,0,4.5-19.37H148a90,90,0,0,1-6.07,25.75A65.18,65.18,0,0,1,129.8,451.4a50.65,50.65,0,0,1-17.53,12.44,56.25,56.25,0,0,1-22.43,4.33q-16.45,0-28.89-6.33a60.15,60.15,0,0,1-20.67-17,74.71,74.71,0,0,1-12.34-24.72,105.6,105.6,0,0,1,0-58.35A74.71,74.71,0,0,1,40.28,337,60.15,60.15,0,0,1,61,320q12.43-6.33,28.89-6.33a60,60,0,0,1,19.49,3.24,54.1,54.1,0,0,1,30.16,25.32,56.75,56.75,0,0,1,6.57,21.43Z" transform="translate(-23.83 -6.57)"/><path class="cls-1" d="M151.73,313.66h12.35V379h.39a33.41,33.41,0,0,1,5-9.2,32.51,32.51,0,0,1,7.54-7.14,36.49,36.49,0,0,1,9.4-4.54,34.11,34.11,0,0,1,10.39-1.62q10.58,0,17.72,2.94A28,28,0,0,1,226,367.76,31.79,31.79,0,0,1,232,380.9a78.87,78.87,0,0,1,1.77,17.45v69.82H221.47V400.68a67.14,67.14,0,0,0-1.18-12.9,28.19,28.19,0,0,0-4.11-10.37,20.33,20.33,0,0,0-7.94-6.92A27.43,27.43,0,0,0,195.81,368a29.08,29.08,0,0,0-23.12,10.59,34.13,34.13,0,0,0-6.26,11.74,52.64,52.64,0,0,0-2.35,14.78v63.09H151.73Z" transform="translate(-23.83 -6.57)"/><path class="cls-1" d="M250.26,416a54,54,0,0,0,2,14.23,43.3,43.3,0,0,0,5.87,13,31.79,31.79,0,0,0,10.29,9.62,29,29,0,0,0,15.18,3.81q13.51,0,21.15-7.9t10.58-20.66h12.34q-3.93,19-14.4,29.53t-29.67,10.5q-12.15,0-20.77-4.5a39.48,39.48,0,0,1-14.1-12.17,53.34,53.34,0,0,1-8.13-17.79,84.37,84.37,0,0,1-2.64-21.37,80,80,0,0,1,2.64-20.45,55.92,55.92,0,0,1,8.13-17.9,41.78,41.78,0,0,1,14.1-12.68q8.63-4.8,20.77-4.8t20.76,5.13a42.16,42.16,0,0,1,14,13.44,57.22,57.22,0,0,1,7.74,19.08A87.54,87.54,0,0,1,328,416Zm65.42-11.47a46,46,0,0,0-2.45-13.72,37.69,37.69,0,0,0-6.37-11.63,31.7,31.7,0,0,0-10-8.14A28.2,28.2,0,0,0,283.56,368,28.62,28.62,0,0,0,270,371.06a31.63,31.63,0,0,0-10,8.14,40.91,40.91,0,0,0-6.56,11.73,58.2,58.2,0,0,0-3.23,13.62Z" transform="translate(-23.83 -6.57)"/><path class="cls-1" d="M369.55,368h-20v100.2H337.23V368H320V356.51h17.24V346.33a83.31,83.31,0,0,1,1-13.2,27.44,27.44,0,0,1,3.73-10.38,18.33,18.33,0,0,1,7.54-6.71q4.8-2.39,12.24-2.38c1.83,0,3.53.07,5.09.21s3.33.37,5.29.65v11.69c-1.7-.29-3.26-.54-4.7-.76a29.77,29.77,0,0,0-4.31-.32q-5.1,0-7.83,1.73a10.2,10.2,0,0,0-4,4.65,19.4,19.4,0,0,0-1.47,6.82c-.13,2.59-.19,5.41-.19,8.44v9.74h20Z" transform="translate(-23.83 -6.57)"/></g><g id="Capa_3" data-name="Capa 3"><path class="cls-2" d="M628.36,13c33.61,16.84,61.3,46,83.45,82.23,38.38,62.8,79.05,97.07,100.91,115.93,47.59,41.06,52.34,120.25,36.87,185.27-13,43.11-63,71.14-101.25,74.64-3.83.35-25.07-1.31-26-14.15-.92-13.35,15-8.17,23.12-9.33,13.58-1.93,25.32-9.53,37.11-16.82,63.17-39.09,72.93-122.66,22.23-185.8-43.25-53.87-78.55-93.51-114.59-151.35-27.7-44.44-65.82-50.83-103-39.22-35.1,11-78.38,27.21-118.74,65-21.92,20.52-48.38,52.25-42.36,94.43,6.56,45.89,29.28,77.48,62,94.52,8.46,4.41,22.78,4.34,19.28,20.18-3.33,15.05-16.22,7-24.86,3.44-71.82-29.54-97.7-158.24-44.26-237.08C468.51,50.33,512.81,29.69,554.18,13,572.34,6,603.74,6.81,628.36,13Z" transform="translate(-23.83 -6.57)"/><path class="cls-2" d="M537.7,440.43c2.86-.81,12.83-1.09,15.8-1.19,30.23-1.06,57,7.33,76.39,27.39,21.85,22.65,32.92,23.67,38.45-22.93,1.66-14,.62-34.69,13.39-33.13,6.1.75,4.84,24.13,4.3,36.79-2.1,49.06-15.91,95.88-39.29,135.82-8.5,14.53-18,29.9-33.08,30.2-6.85.13-20.47-9-23.11-16.88-6.18-18.35,12.87-9.6,18.64-13.1,21.21-12.83,30.31-34.2,27.6-66.56-2.6-31-22.62-46.35-42.24-47.82-35.61-2.67-71.15,5.79-86.21,56.73-1.64,5.55-6.89,16.12-10.81,17.82-8,3.49-4.57-17.46-3.94-24.25,5.2-56.26,21.11-107.55,42.66-156,1.29-2.89,2.9-9.89,7.49-8.74,3.83.13.85,10.75,0,14.4a281.08,281.08,0,0,1-9.22,32.3C525.31,426.72,513.79,447.14,537.7,440.43Z" transform="translate(-23.83 -6.57)"/></g><g id="Capa_4" data-name="Capa 4"><path class="cls-3" d="M623.78,824.68" transform="translate(-23.83 -6.57)"/><path class="cls-4" d="M711.6,703.72C685,757,668.24,786.43,648.32,860.4c-6.43,24.13-27.69,93.2-7.49,113.94C664.06,998.2,690.45,970.58,712,953c26.07-21.26,47.87-49.4,67.89-79.9,2.37-3.6,6-12.9,11.58-9,4.77,2.52-1.72,11.31-3.49,14.62-25.92,48.49-58.37,87.81-100.63,109.54-41.43,21.3-71.28-7-65.56-55,.83-12,2-20.71,3-32.76h0l3-19c3.46-27.82,25.2-93.2,34.3-111.4,3.86-7.71,5.93-11.86,6-12.09a2.49,2.49,0,0,0-3.79-2.36c-2,1.2-9.7,14.05-11,16-14,21.34-39,48.51-62.88,72.85a62.91,62.91,0,0,1-13.63,10.54c-8.21,4.68-20,9.71-25.36,4.05-8.09-8.5-2.88-24.51-.56-35.9,15.23-74.82,94.27-164,158.2-145h0a1.59,1.59,0,0,0,2-1.19c1.11-5.6,3.4-6.3,6.44-4.75s4.19,2.51,2.94,7.79c-.84,3.52-7,20.15-7.45,20.43Z" transform="translate(-23.83 -6.57)"/><path class="cls-5" d="M668.12,726.49c-24.76,37.44-21.75,34.81-57.44,78.9-3.91,4.83-25.53,29.87-35.25,24.72-4.6-2.44-.61-19.08,2.21-25.33,20.65-45.76,43-82.59,76-106.27A25,25,0,0,1,669.12,694a11,11,0,0,1,9,16.08A140.62,140.62,0,0,1,668.12,726.49Z" transform="translate(-23.83 -6.57)"/><path class="cls-4" d="M1280.48,704.82c-26.63,53.27-43.36,82.72-63.28,156.68-6.43,24.14-27.69,93.21-7.49,114,23.23,23.86,49.62-3.76,71.19-21.35,26.07-21.26,47.87-49.39,67.89-79.89,2.37-3.61,6-12.91,11.58-9,4.77,2.52-1.72,11.31-3.49,14.62-25.92,48.48-58.37,87.81-100.63,109.54-41.43,21.3-71.28-7-65.56-55,.83-12,2-20.71,3-32.76h0l3-19c3.46-27.82,25.2-93.21,34.3-111.4,3.86-7.71,5.93-11.86,6-12.09a2.49,2.49,0,0,0-3.79-2.36c-2,1.19-9.7,14-11,16-14,21.34-39,48.51-62.88,72.85a62.91,62.91,0,0,1-13.63,10.54c-8.21,4.68-20,9.71-25.36,4-8.09-8.5-2.88-24.5-.56-35.89,15.23-74.82,94.27-164,158.2-145h0a1.59,1.59,0,0,0,2-1.19c1.11-5.6,3.4-6.3,6.44-4.75s4.19,2.51,2.94,7.79c-.84,3.52-7,20.15-7.45,20.42Z" transform="translate(-23.83 -6.57)"/><path class="cls-5" d="M1237,727.6c-24.76,37.44-21.75,34.81-57.44,78.9-3.91,4.83-25.53,29.87-35.25,24.72-4.6-2.45-.61-19.09,2.21-25.33,20.65-45.77,43-82.6,76-106.27a24.91,24.91,0,0,1,15.52-4.55,11,11,0,0,1,9,16.08A141.55,141.55,0,0,1,1237,727.6Z" transform="translate(-23.83 -6.57)"/><path class="cls-4" d="M1657.93,704.82c-26.63,53.27-43.37,82.72-63.28,156.68-6.44,24.14-27.69,93.21-7.49,114,23.23,23.86,49.62-3.76,71.19-21.35,26.07-21.26,47.87-49.39,67.89-79.89,2.36-3.61,6-12.91,11.58-9,4.76,2.52-1.72,11.31-3.49,14.62-25.93,48.48-58.37,87.81-100.63,109.54-41.44,21.3-71.28-7-65.56-55,.83-12,2-20.71,3-32.76h0l3-19c3.46-27.82,25.2-93.21,34.3-111.4,3.85-7.71,5.93-11.86,6-12.09a2.49,2.49,0,0,0-3.79-2.36c-2,1.19-9.7,14-11,16-14,21.34-39,48.51-62.89,72.85a62.61,62.61,0,0,1-13.62,10.54c-8.21,4.68-20,9.71-25.36,4-8.09-8.5-2.88-24.5-.57-35.89,15.24-74.82,94.28-164,158.21-145h0a1.59,1.59,0,0,0,2-1.19c1.11-5.6,3.4-6.3,6.44-4.75s4.19,2.51,2.93,7.79c-.83,3.52-7,20.15-7.44,20.42Z" transform="translate(-23.83 -6.57)"/><path class="cls-5" d="M1614.45,727.6c-24.76,37.44-21.75,34.81-57.45,78.9-3.9,4.83-25.52,29.87-35.24,24.72-4.6-2.45-.61-19.09,2.21-25.33,20.64-45.77,43-82.6,76-106.27a24.88,24.88,0,0,1,15.51-4.55,11,11,0,0,1,9,16.08A141.55,141.55,0,0,1,1614.45,727.6Z" transform="translate(-23.83 -6.57)"/></g><g id="Capa_5" data-name="Capa 5"><path class="cls-6" d="M368.85,717.36c-72-24.34-64.68-11.47-105.39,35.82C217.27,806.85,171,855.84,108.94,869.87,68.55,879,42.16,847,42.47,792.43c.53-94,25.64-136.67,119.06-135.83,27.83,1.13,84.5,13.83,125.6,15.38,11.93.45,28.29-4.63,34.63-15.27C356.55,598.32,392.32,541,427.37,482.83c7.78-12.9,19.58-11,25.74-8.87,13.44,4.59,8.78,18.46,5.36,33.55-13.41,59.24-25.2,119.68-38.73,178.87-4.27,18.72-7.87,34.82,7.66,37.45,4.81.81,17.76,1.77,20.94-1.7,6.2-6.78-3.81-19.27-7.66-25.36-2.84-4.51-7.23-12.72-2.85-14.13,7.73-2.49,13.73,4.68,16.64,9.53,5.76,9.61,13.93,20.73,8.51,34.72-4.93,12.73-21.35,14.92-30.81,11.41-23.44-8.7-22.54,2.14-23.32,30.3-.75,27-7.55,54.08,4.78,80.37,2.78,5.93,2.54,15.12-5.46,16.14-6.46.82-10.06-6.3-11.4-13.11-6.33-32-5.95-67-2.9-99.06,1.89-19.8,3.49-25.21-19.32-33.84-.54-.2-1.09-.38-1.64-.55ZM57.54,789.16c0,56.6,24.51,76.49,71.71,57.4C191,821.58,237.48,765.32,284,709.4c12.79-15.39,2.4-18.22-7.29-20.73C217.33,673.3,177.9,675.85,132.43,677,79.34,679.93,57.52,717.3,57.54,789.16Zm338-81.5c6.09,1.15,6-6.69,8.14-17.44,11.21-56.87,21.11-115.74,37-171.5,1.91-6.7,2.85-14.72-3-15.53-5.87-.51-8.65,3.41-13,11.7-20.33,38.58-42.42,69.55-64.34,107.62-10.5,18.23-53,68-29.24,69.7Z" transform="translate(-23.83 -6.57)"/></g><g id="Capa_6" data-name="Capa 6"><path class="cls-6" d="M628.43,831.4c23.83,36.43-22.09,85.06-30.2,95.6-17,22.08-33.5,36.06-56.55,45.19-43.27,17.14-68-9.26-59.19-68.34,8.08-54.22,30.26-99.12,50.72-146,2.45-5.61,7.48-15.1,10.22-20.77,7-14.54-7.9-13.35-16-2.4-2.63,3.57-5.74,7.07-7.89,9.73-23.55,29.07-46.19,59.44-69.15,89.34-8,10.36-18.66,21-28,13.1-10.07-8.44,1.41-23.49,6-33.16,17.26-36,35.52-71.17,53.72-106.36,2.77-5.35,7-11.42,12.6-7.55,6.46,4.46-.77,12.07-3.13,17.26-10.48,23-41.19,74.83-34,79.11,8.79,5.25,39.24-40.14,53.21-58.09,38.69-49.66,47.48-41.62,53-39.5,17,6.52-10.49,48.8-18.72,71.88C528.57,816.84,504.4,859.15,500.56,912c-2.79,38.33,13.12,56.5,40.24,42.93,32.26-16.15,55.14-44,75.87-80,4.66-8.1,7.41-20.75,3.45-30.46-2.74-6.69-2.25-14.86,5.24-14Zm-39.82-90.32" transform="translate(-23.83 -6.57)"/></g><g id="Capa_7" data-name="Capa 7"><path class="cls-6" d="M1358,825.31a137.31,137.31,0,0,1,1.19-14.16c2.35-12.86,2.38-14.47,6-25.7,2.26-7.1,8.24-24.28,10.55-31.32,3.79-11.53-2.51-17-11.23-2-3.92,6.73-19.21,29-27.16,39.35-21,27.3-18.42,25.48-42.41,54.63a56.24,56.24,0,0,1-13.56,12c-8.27,5.17-19.55,9.19-29.9,2.22-12.81-8.64-9.92-25.71-6.46-40.85C1259,758,1278,717.44,1310.3,669c4.11-6.17,7-12.19,15.12-7.61,8.71,4.89-.56,19.16-4.27,25.53-23.36,40.07-36.69,62.81-52.1,108.78-3.51,10.49-13.12,38.16-4,44.54,10.51,7.37,38.35-30.87,48.26-45.23q4-5.76,8.28-11.26c29.86-38.12,25.07-38.91,59.55-80,6.5-7.75,15.32-21.78,28.25-14.63,6.31,3.48-.08,25.49-5.79,39.49-14.29,35.06-22.66,55.94-29.61,79.31-3.13,10.52-8.06,30.71,7.15,28.6,12.25-1.7,12.4-14.54,20.42-9.19,5.11,3.4.34,14.64-9.09,23.75-5.87,5.66-10.55,9.4-21.38,6.55-6.46-1.71-9.32-5.7-11.1-10.17-.89-2.23-2-9.85-2-14.88Z" transform="translate(-23.83 -6.57)"/></g><g id="Capa_8" data-name="Capa 8"><path class="cls-6" d="M1500.54,807a1.54,1.54,0,0,1,2.8,1.16c-8.86,38.91-32,47.48-47.45,49.12a30.72,30.72,0,0,1-24.54-9c-15.36-15.69-16.47-39.92-14-62.87,11.9-108.67,55-199.81,95-292.28,33.11-76.68,73.72-145.82,129.49-196.2,71.88-64.93,158.88-66.6,211.85,3.58,38.6,51.15,32.2,119.23-3.08,174.67-29.81,46.84-61.35,69-108.59,102.4-78.32,48.42-179.26,88.8-264.88,114.58-15.73,4.74-25.18,15.86-31.78,30.91-12,27.4-16.59,76-3,99.8,6.45,12.91,15.53,16,26.33,11.07C1482.37,827.74,1492,820.42,1500.54,807ZM1750,263.05c-46.42.73-89.3,32.79-122.09,73.23-72.81,89.82-120.78,202.31-162.09,320.59-2.25,6.45-7.06,15.4-1.47,20.68,3.56,3.38,10.78,1.36,16.05-.16,67.95-19.65,134.63-45.28,198.61-81.75,62-35.33,128.39-81.33,170-157.11C1873,395,1866,347.2,1837.13,309.83,1811.79,277,1785.4,263,1750,263.05Z" transform="translate(-23.83 -6.57)"/></g><g id="Capa_9" data-name="Capa 9"><path class="cls-7" d="M1102.64,754.47" transform="translate(-23.83 -6.57)"/><path class="cls-6" d="M927.21,415.08c89.28-1,174.65,56.65,235.59,150.72,22.47,38.49,54.91,115.48-23.63,171.83-40.54,27.1-110.54,9.8-111.8-1.16s6.83-12.74,15.17-9.09c34.26,15,81.06,1,97.91-13.41,40.13-34.41,36.41-84.56,11.53-128.68-46.74-82.87-129.51-137.55-187.53-150-2.8-.78-5.69-.93-8.53-1.48-31-6-69.79-7.46-86.07,23.8-22,37.42-10.91,80.15.48,120.35,1.6,5.66,10.69,20.57,4.53,25-10.62,7.64-18.44-20.55-20-26.24C844.11,538.54,842,526.44,843.49,489c.83-20.85,9.68-40.76,25.24-54.65,14.17-12.65,32.34-19.34,58.48-19.28" transform="translate(-23.83 -6.57)"/><path class="cls-7" d="M929,417.12" transform="translate(-23.83 -6.57)"/><path class="cls-6" d="M965.76,843a83.93,83.93,0,0,1-7.09,10.56c-55.39,70.11-93.52,1.19-82.95-2.48,6.32-2.2,9.14,5.88,19.09,13.89,22.85,18.38,44.79-10.42,59.16-36.65,40.13-73.23,58-111.58,84.77-194.85,3.84-11.93,20.71-65.46,23.27-77.73,1.18-5.59,3.32-13.72,9.48-12,9.7,2.77,3,22.65.25,32.36C1046.59,666.6,1009.89,765.07,965.76,843Z" transform="translate(-23.83 -6.57)"/></g></svg>