<?xml version="1.0" standalone="no"?>
<!DOCTYPE svg PUBLIC "-//W3C//DTD SVG 20010904//EN"
 "http://www.w3.org/TR/2001/REC-SVG-20010904/DTD/svg10.dtd">
<svg version="1.0" xmlns="http://www.w3.org/2000/svg"
 width="512.000000pt" height="512.000000pt" viewBox="0 0 512.000000 512.000000"
 preserveAspectRatio="xMidYMid meet">

<g transform="translate(0.000000,512.000000) scale(0.100000,-0.100000)"
fill="#f00b11" stroke="none">
<path d="M2133 4450 c-26 -10 -157 -158 -226 -255 -59 -83 -139 -246 -162
-330 -23 -87 -30 -240 -15 -332 20 -126 63 -240 184 -491 63 -131 126 -271
140 -313 85 -253 32 -467 -133 -543 -64 -29 -188 -29 -251 0 -56 26 -106 76
-121 122 -14 42 -6 146 21 279 53 253 48 372 -19 508 -46 93 -107 165 -192
229 -68 51 -105 58 -135 25 -17 -19 -19 -34 -16 -143 6 -219 -41 -350 -243
-676 -134 -216 -207 -367 -242 -496 -36 -137 -38 -336 -4 -464 76 -287 272
-526 587 -717 242 -147 513 -204 858 -182 226 15 369 60 552 174 l72 45 475 0
c310 0 495 4 529 11 166 35 294 172 319 342 11 81 11 334 -1 416 -19 134 -114
261 -237 319 -57 26 -64 27 -293 32 l-235 5 -7 110 c-19 290 -101 536 -255
770 -77 116 -147 199 -355 422 -268 285 -362 423 -432 633 -37 111 -66 278
-66 378 0 72 -13 106 -47 121 -13 6 -25 11 -26 10 -1 0 -12 -4 -24 -9z m28
-539 c37 -114 83 -207 154 -316 73 -113 133 -185 321 -387 286 -306 378 -433
459 -635 58 -142 105 -376 105 -518 l0 -35 -357 0 c-197 0 -386 -4 -420 -9
-170 -25 -307 -153 -342 -319 -14 -66 -14 -391 -1 -463 32 -169 163 -293 341
-323 81 -14 84 -10 -51 -58 -81 -29 -94 -31 -293 -35 -235 -6 -311 2 -452 49
-193 65 -373 175 -511 313 -200 200 -295 421 -281 655 11 184 69 326 269 652
61 101 131 225 155 275 46 98 93 260 93 324 0 49 12 55 37 21 60 -81 90 -192
80 -295 -3 -34 -18 -120 -33 -192 -31 -152 -37 -310 -15 -365 42 -103 137
-183 254 -215 93 -25 222 -17 299 18 62 28 148 101 183 157 56 89 69 145 69
300 0 137 -2 151 -33 245 -18 55 -81 201 -141 325 -152 317 -190 434 -190 586
0 143 72 332 181 479 l52 70 18 -104 c10 -57 32 -147 50 -200z m1640 -2056
c64 -22 113 -67 146 -133 28 -57 28 -57 28 -267 0 -200 -1 -213 -24 -263 -26
-58 -74 -105 -135 -133 -39 -17 -81 -19 -721 -19 l-680 0 -51 24 c-63 29 -120
95 -139 160 -20 67 -21 393 -1 459 17 56 46 98 92 133 70 54 58 53 775 54 571
0 672 -2 710 -15z"/>
<path d="M2493 1750 c-40 -16 -43 -39 -43 -294 0 -233 1 -247 20 -266 23 -23
68 -26 96 -6 14 11 20 30 24 78 l5 63 52 -72 c58 -80 87 -96 128 -69 53 35 44
69 -58 215 l-45 65 43 60 c56 80 60 97 34 129 -33 43 -79 37 -123 -15 l-36
-43 0 56 c0 80 -41 121 -97 99z"/>
<path d="M3691 1724 c-20 -25 -21 -39 -21 -264 0 -225 1 -239 21 -264 25 -31
66 -34 100 -7 24 19 24 21 27 247 2 126 0 239 -3 251 -15 63 -87 84 -124 37z"/>
<path d="M3025 1696 c-5 -3 -22 -7 -37 -10 -39 -9 -88 -54 -109 -101 -26 -57
-26 -243 0 -300 36 -81 103 -115 222 -115 82 0 119 23 119 74 0 52 -28 70
-118 74 -43 2 -83 9 -89 14 -17 14 -18 189 -1 206 7 7 41 12 84 12 88 0 124
22 124 74 0 52 -29 70 -113 73 -40 1 -76 1 -82 -1z"/>
<path d="M3289 1672 c-15 -13 -22 -30 -22 -52 0 -53 30 -70 122 -70 75 0 101
-9 101 -36 0 -7 -27 -14 -67 -17 -71 -7 -101 -22 -137 -70 -30 -40 -29 -149 2
-198 34 -55 72 -69 191 -69 96 0 103 2 127 25 l26 26 -4 182 c-3 171 -4 184
-27 220 -36 59 -83 77 -194 77 -77 0 -99 -3 -118 -18z m201 -337 c0 -22 -4
-25 -40 -25 -36 0 -40 3 -40 25 0 23 4 25 40 25 36 0 40 -2 40 -25z"/>
</g>
</svg>
